HIERARCHY
ROOT Hips
{
	OFFSET 0.000000 83.214638 0.000000
	CHANNELS 6 Xposition Yposition Zposition Xrotation Yrotation Zrotation
	JOINT Pelvis
	{
		OFFSET 0.000000 0.000000 0.000000
		CHANNELS 3 Xrotation Yrotation Zrotation
		JOINT LeftUpLeg
		{
			OFFSET 8.479700 -4.795502 -0.379100
			CHANNELS 3 Xrotation Yrotation Zrotation
			JOINT LeftLeg
			{
				OFFSET 0.024144 -32.555107 0.112900
				CHANNELS 3 Xrotation Yrotation Zrotation
				JOINT LeftFoot
				{
					OFFSET -0.024144 -32.638630 -3.012600
					CHANNELS 3 Xrotation Yrotation Zrotation
					JOINT LeftToeBase
					{
						OFFSET 0.970200 -13.225400 11.864200
						CHANNELS 3 Xrotation Yrotation Zrotation
						End Site
						{
							OFFSET 0.000000 12.319262 0.000000
						}
					}
					JOINT LFootTongue
					{
						OFFSET 1.142400 -1.059800 6.665200
						CHANNELS 3 Xrotation Yrotation Zrotation
						End Site
						{
							OFFSET 0.000000 12.319262 0.000000
						}
					}
				}
				JOINT LeftPantLeg
				{
					OFFSET 0.918482 -16.533964 -2.284700
					CHANNELS 3 Xrotation Yrotation Zrotation
					End Site
					{
						OFFSET 0.350399 24.744368 0.000000
					}
				}
			}
		}
		JOINT RightUpLeg
		{
			OFFSET -8.479700 -4.795502 -0.379100
			CHANNELS 3 Xrotation Yrotation Zrotation
			JOINT RightLeg
			{
				OFFSET -0.023144 -32.555092 0.112900
				CHANNELS 3 Xrotation Yrotation Zrotation
				JOINT RightFoot
				{
					OFFSET 0.023144 -32.638641 -3.012700
					CHANNELS 3 Xrotation Yrotation Zrotation
					JOINT RightToeBase
					{
						OFFSET -0.970200 -13.225400 11.864200
						CHANNELS 3 Xrotation Yrotation Zrotation
						End Site
						{
							OFFSET 0.000000 12.319244 0.000000
						}
					}
					JOINT RFootTongue
					{
						OFFSET -1.142200 -1.059800 6.665200
						CHANNELS 3 Xrotation Yrotation Zrotation
						End Site
						{
							OFFSET 0.000000 12.319243 0.000000
						}
					}
				}
				JOINT RightPantLeg
				{
					OFFSET -0.919482 -16.533978 -2.284800
					CHANNELS 3 Xrotation Yrotation Zrotation
					End Site
					{
						OFFSET -0.350400 24.744419 0.000000
					}
				}
			}
		}
	}
	JOINT Spine
	{
		OFFSET 0.000000 7.722000 1.166200
		CHANNELS 3 Xrotation Yrotation Zrotation
		JOINT Spine1
		{
			OFFSET 0.000000 12.024101 0.248800
			CHANNELS 3 Xrotation Yrotation Zrotation
			JOINT Spine2
			{
				OFFSET 0.000000 11.502998 -0.491200
				CHANNELS 3 Xrotation Yrotation Zrotation
				JOINT Neck
				{
					OFFSET 0.000000 18.430702 -3.123100
					CHANNELS 3 Xrotation Yrotation Zrotation
					JOINT Head
					{
						OFFSET 0.000000 9.051102 1.034000
						CHANNELS 3 Xrotation Yrotation Zrotation
						JOINT HairB
						{
							OFFSET 0.208400 24.786102 24.822300
							CHANNELS 3 Xrotation Yrotation Zrotation
							End Site
							{
								OFFSET 0.000000 32.263779 0.000000
							}
						}
						JOINT HairA
						{
							OFFSET -7.081100 24.428299 23.196600
							CHANNELS 3 Xrotation Yrotation Zrotation
							End Site
							{
								OFFSET 0.000000 32.263779 0.000000
							}
						}
						JOINT Hat
						{
							OFFSET 16.728800 15.048294 -15.439601
							CHANNELS 3 Xrotation Yrotation Zrotation
							End Site
							{
								OFFSET 0.000000 32.263779 0.000000
							}
						}
					}
				}
				JOINT LeftShoulder
				{
					OFFSET 6.197800 13.665199 -4.064700
					CHANNELS 3 Xrotation Yrotation Zrotation
					JOINT LeftArm
					{
						OFFSET 7.778100 -0.187103 -1.709300
						CHANNELS 3 Xrotation Yrotation Zrotation
						JOINT LeftForeArm
						{
							OFFSET 22.049376 0.000000 0.000000
							CHANNELS 3 Xrotation Yrotation Zrotation
							JOINT LeftHand
							{
								OFFSET 23.009392 0.000000 0.000000
								CHANNELS 3 Xrotation Yrotation Zrotation
								JOINT LeftHandThumb1
								{
									OFFSET 3.507191 -2.063065 3.133727
									CHANNELS 3 Xrotation Yrotation Zrotation
									JOINT LeftHandThumb2
									{
										OFFSET 3.101337 -1.790558 1.790558
										CHANNELS 3 Xrotation Yrotation Zrotation
										JOINT LeftHandThumb3
										{
											OFFSET 3.058640 -1.765907 1.765906
											CHANNELS 3 Xrotation Yrotation Zrotation
											End Site
											{
												OFFSET -0.415260 3.926476 -0.049563
											}
										}
									}
								}
								JOINT LeftHandIndex1
								{
									OFFSET 11.334419 -0.901459 3.706815
									CHANNELS 3 Xrotation Yrotation Zrotation
									JOINT LeftHandIndex2
									{
										OFFSET 3.283112 0.000000 0.000000
										CHANNELS 3 Xrotation Yrotation Zrotation
										JOINT LeftHandIndex3
										{
											OFFSET 3.323853 0.000000 0.000000
											CHANNELS 3 Xrotation Yrotation Zrotation
											End Site
											{
												OFFSET -1.135597 3.097809 0.402452
											}
										}
									}
								}
								JOINT LeftHandMiddle1
								{
									OFFSET 11.335861 0.000000 0.000000
									CHANNELS 3 Xrotation Yrotation Zrotation
									JOINT LeftHandMiddle2
									{
										OFFSET 3.410492 0.000000 0.000000
										CHANNELS 3 Xrotation Yrotation Zrotation
										JOINT LeftHandMiddle3
										{
											OFFSET 3.312172 0.000000 0.000000
											CHANNELS 3 Xrotation Yrotation Zrotation
											End Site
											{
												OFFSET -1.150200 3.080154 0.400270
											}
										}
									}
								}
								JOINT LeftHandRing1
								{
									OFFSET 11.514786 -0.013176 -3.003090
									CHANNELS 3 Xrotation Yrotation Zrotation
									JOINT LeftHandRing2
									{
										OFFSET 3.053307 0.000000 0.000000
										CHANNELS 3 Xrotation Yrotation Zrotation
										JOINT LeftHandRing3
										{
											OFFSET 3.295807 0.000000 0.000000
											CHANNELS 3 Xrotation Yrotation Zrotation
											End Site
											{
												OFFSET -1.281006 3.013344 0.375733
											}
										}
									}
								}
								JOINT LeftHandPinky1
								{
									OFFSET 10.518692 -0.960396 -5.730441
									CHANNELS 3 Xrotation Yrotation Zrotation
									JOINT LeftHandPinky2
									{
										OFFSET 2.861649 0.000000 0.000000
										CHANNELS 3 Xrotation Yrotation Zrotation
										JOINT LeftHandPinky3
										{
											OFFSET 2.863380 0.000000 0.000000
											CHANNELS 3 Xrotation Yrotation Zrotation
											End Site
											{
												OFFSET -0.843597 2.711159 0.369971
											}
										}
									}
								}
							}
							JOINT LSleeve
							{
								OFFSET 6.676277 -0.344902 -1.011730
								CHANNELS 3 Xrotation Yrotation Zrotation
								End Site
								{
									OFFSET 0.000000 14.885353 0.000000
								}
							}
						}
					}
				}
				JOINT RightShoulder
				{
					OFFSET -6.197800 13.665199 -4.064700
					CHANNELS 3 Xrotation Yrotation Zrotation
					JOINT RightArm
					{
						OFFSET -7.778100 -0.187103 -1.709300
						CHANNELS 3 Xrotation Yrotation Zrotation
						JOINT RightForeArm
						{
							OFFSET -22.049376 0.000000 0.000000
							CHANNELS 3 Xrotation Yrotation Zrotation
							JOINT RightHand
							{
								OFFSET -23.009392 0.000000 0.000000
								CHANNELS 3 Xrotation Yrotation Zrotation
								JOINT RightHandThumb1
								{
									OFFSET -3.507191 -2.063065 3.133727
									CHANNELS 3 Xrotation Yrotation Zrotation
									JOINT RightHandThumb2
									{
										OFFSET -3.101337 -1.790558 1.790558
										CHANNELS 3 Xrotation Yrotation Zrotation
										JOINT RightHandThumb3
										{
											OFFSET -3.058640 -1.765907 1.765906
											CHANNELS 3 Xrotation Yrotation Zrotation
											End Site
											{
												OFFSET 0.415260 3.926476 -0.049563
											}
										}
									}
								}
								JOINT RightHandIndex1
								{
									OFFSET -11.334419 -0.901459 3.706815
									CHANNELS 3 Xrotation Yrotation Zrotation
									JOINT RightHandIndex2
									{
										OFFSET -3.283112 0.000000 0.000000
										CHANNELS 3 Xrotation Yrotation Zrotation
										JOINT RightHandIndex3
										{
											OFFSET -3.323853 0.000000 0.000000
											CHANNELS 3 Xrotation Yrotation Zrotation
											End Site
											{
												OFFSET 1.135597 3.097809 0.402452
											}
										}
									}
								}
								JOINT RightHandMiddle1
								{
									OFFSET -11.335861 0.000000 0.000000
									CHANNELS 3 Xrotation Yrotation Zrotation
									JOINT RightHandMiddle2
									{
										OFFSET -3.410492 0.000000 0.000000
										CHANNELS 3 Xrotation Yrotation Zrotation
										JOINT RightHandMiddle3
										{
											OFFSET -3.312172 0.000000 0.000000
											CHANNELS 3 Xrotation Yrotation Zrotation
											End Site
											{
												OFFSET 1.150200 3.080154 0.400270
											}
										}
									}
								}
								JOINT RightHandRing1
								{
									OFFSET -11.514786 -0.013176 -3.003090
									CHANNELS 3 Xrotation Yrotation Zrotation
									JOINT RightHandRing2
									{
										OFFSET -3.053307 0.000000 0.000000
										CHANNELS 3 Xrotation Yrotation Zrotation
										JOINT RightHandRing3
										{
											OFFSET -3.295807 0.000000 0.000000
											CHANNELS 3 Xrotation Yrotation Zrotation
											End Site
											{
												OFFSET 1.281006 3.013344 0.375733
											}
										}
									}
								}
								JOINT RightHandPinky1
								{
									OFFSET -10.518692 -0.960396 -5.730441
									CHANNELS 3 Xrotation Yrotation Zrotation
									JOINT RightHandPinky2
									{
										OFFSET -2.861649 0.000000 0.000000
										CHANNELS 3 Xrotation Yrotation Zrotation
										JOINT RightHandPinky3
										{
											OFFSET -2.863380 0.000000 0.000000
											CHANNELS 3 Xrotation Yrotation Zrotation
											End Site
											{
												OFFSET 0.843597 2.711159 0.369971
											}
										}
									}
								}
							}
							JOINT RSleeve
							{
								OFFSET -6.676277 -0.344902 -1.011730
								CHANNELS 3 Xrotation Yrotation Zrotation
								End Site
								{
									OFFSET 0.000000 14.885353 0.000000
								}
							}
						}
					}
				}
				JOINT Backpack
				{
					OFFSET 0.000000 -2.471497 36.677502
					CHANNELS 3 Xrotation Yrotation Zrotation
					End Site
					{
						OFFSET 0.000000 20.427315 0.000000
					}
				}
				JOINT Hood
				{
					OFFSET 0.000000 18.754097 -10.431000
					CHANNELS 3 Xrotation Yrotation Zrotation
					JOINT Hood1
					{
						OFFSET 0.000000 -5.011002 -7.685901
						CHANNELS 3 Xrotation Yrotation Zrotation
						End Site
						{
							OFFSET 0.000000 9.175140 0.000000
						}
					}
				}
				JOINT LHoodieString
				{
					OFFSET 5.250500 16.397697 3.089900
					CHANNELS 3 Xrotation Yrotation Zrotation
					JOINT LHoodieString1
					{
						OFFSET 0.257700 -6.364304 3.694600
						CHANNELS 3 Xrotation Yrotation Zrotation
						JOINT LHoodieString2
						{
							OFFSET 0.000000 -9.643799 2.679100
							CHANNELS 3 Xrotation Yrotation Zrotation
							End Site
							{
								OFFSET 0.000000 10.009018 0.000000
							}
						}
					}
				}
				JOINT RHoodieString
				{
					OFFSET -5.250500 16.397697 3.089900
					CHANNELS 3 Xrotation Yrotation Zrotation
					JOINT RHoodieString1
					{
						OFFSET -0.257700 -6.364304 3.694600
						CHANNELS 3 Xrotation Yrotation Zrotation
						JOINT RHoodieString2
						{
							OFFSET 0.000000 -9.643799 2.679100
							CHANNELS 3 Xrotation Yrotation Zrotation
							End Site
							{
								OFFSET 0.000000 10.009018 0.000000
							}
						}
					}
				}
			}
			JOINT LBackpack_Strap
			{
				OFFSET 15.223200 -7.719803 -6.610900
				CHANNELS 3 Xrotation Yrotation Zrotation
				End Site
				{
					OFFSET 0.000000 16.040596 0.000000
				}
			}
			JOINT RBackpack_Strap
			{
				OFFSET -15.223000 -7.719803 -6.610900
				CHANNELS 3 Xrotation Yrotation Zrotation
				End Site
				{
					OFFSET 0.000000 16.040596 0.000000
				}
			}
		}
	}
	JOINT BoyFacialAnim_Joint
	{
		OFFSET 1.000000 -82.208099 -1.550900
		CHANNELS 3 Xrotation Yrotation Zrotation
		End Site
		{
			OFFSET 0.000000 30.012791 0.000000
		}
	}
}
MOTION
Frames: 4
Frame Time: 0.033333
-0.249646 45.901665 -2.293022 -20.428575 -4.552858 8.205304 0.000002 0.000000 -0.000000 -85.175854 4.906559 14.996339 69.276416 -1.306956 -2.412914 36.703036 -5.263538 -4.617739 -0.000000 -0.000000 -0.000000 -0.000000 -0.000000 0.000000 -0.000005 0.000000 0.000000 -91.055813 7.900125 -4.276976 71.071390 0.591050 2.406473 40.151199 -3.033748 -6.736283 0.000000 0.000001 0.000000 0.000000 0.000001 0.000000 -0.000003 -0.000000 0.000000 6.784187 0.121711 -2.203733 13.578529 0.622093 -4.152763 13.578530 0.622092 -4.152762 4.664163 2.031409 -5.584034 -16.438696 -8.013531 8.414461 -0.000000 -0.000000 -0.000000 -0.000000 -0.000000 -0.000000 -0.000000 -0.000000 -0.000000 1.601570 4.550839 -16.113712 -4.906306 -7.768393 -54.211625 -0.032487 -88.537160 0.033358 64.961731 7.796325 49.921863 -5.937787 1.605171 -21.022402 26.565058 18.105669 -3.603475 -0.000001 -0.000001 -0.000000 10.267363 3.959544 -94.032731 0.410387 0.753659 -50.277378 -0.000000 -0.000000 -0.000002 3.071440 0.911219 -77.823735 -1.948313 -3.792541 -54.113690 0.000001 -0.000001 0.000002 0.523013 4.891462 -75.773661 -2.189821 -4.071880 -56.714175 -0.000000 -0.000001 -0.000000 -2.235542 7.293464 -72.008676 -1.741349 -4.521239 -42.323937 0.000000 0.000000 0.000002 0.000001 0.000000 0.000000 1.208244 -1.781340 15.183241 6.624192 14.060248 39.131257 3.239433 89.018067 -3.327828 57.296708 0.538991 -50.773827 1.447221 18.140641 24.088269 20.192961 -36.859106 6.524741 -0.000002 0.000001 0.000001 -0.732057 -8.331320 64.491199 1.344599 -1.977438 65.272225 0.000000 0.000000 0.000002 -9.329973 0.284945 79.739966 -2.003356 3.258639 70.425076 0.000000 -0.000000 0.000003 -10.480352 4.018353 74.258705 -4.923486 6.011644 76.997849 0.000000 0.000001 0.000001 -15.421353 4.649178 66.669313 -3.445129 7.502997 49.339268 -0.000000 -0.000002 0.000003 0.000002 -0.000001 -0.000000 -0.000000 0.000000 -0.000000 -0.000000 0.000000 -0.000000 -0.000000 0.000000 -0.000000 -0.000000 0.000000 -0.000000 -0.000000 0.000000 -0.000000 -0.000000 0.000000 -0.000000 -0.000000 0.000000 -0.000000 -0.000000 0.000000 -0.000000 -0.000000 0.000000 -0.000000 0.000000 0.000000 0.000000 0.000000 0.000000 0.000000 0.000002 0.000000 -0.000000 
-0.258256 45.908974 -2.296619 -20.417607 -4.576109 8.199856 0.000000 -0.000000 0.000001 -85.171749 4.881436 15.017996 69.272974 -1.277243 -2.409694 36.696428 -5.298548 -4.616231 -0.000000 -0.000000 -0.000001 -0.000000 -0.000000 -0.000000 -0.000001 0.000000 -0.000000 -91.048081 7.909415 -4.227696 71.061356 0.451432 2.396277 40.145608 -2.938680 -6.788114 0.000000 -0.000001 -0.000000 0.000000 -0.000001 -0.000000 -0.000002 0.000001 -0.000001 6.777322 0.128644 -2.207973 13.565025 0.634458 -4.162565 13.565021 0.634458 -4.162561 4.647332 2.030961 -5.569550 -16.444302 -8.021979 8.428921 -0.000000 0.000000 -0.000000 -0.000000 0.000000 -0.000000 -0.000000 0.000000 -0.000000 1.601579 4.561525 -16.114218 -4.810905 -7.786450 -54.168089 -0.028947 -88.589924 0.037106 65.166206 7.801869 49.960542 -5.937774 1.605180 -21.022398 26.565056 18.105674 -3.603476 0.000001 -0.000000 -0.000000 10.267327 3.959523 -94.032717 0.410375 0.753684 -50.277384 -0.000000 -0.000001 -0.000002 3.071451 0.911223 -77.823735 -1.948313 -3.792533 -54.113680 0.000001 -0.000001 -0.000000 0.522988 4.891455 -75.773668 -2.189823 -4.071885 -56.714182 -0.000000 0.000001 -0.000000 -2.235536 7.293467 -72.008683 -1.741339 -4.521234 -42.323947 0.000001 -0.000000 -0.000000 0.000003 0.000000 0.000000 1.208542 -1.782335 15.188898 6.627739 14.065751 39.122774 3.219542 89.012856 -3.307912 57.233734 0.593721 -50.741871 1.459077 18.143522 24.032953 20.062246 -36.703917 6.450803 0.000002 0.000001 0.000000 0.943505 -7.585095 71.241646 1.342540 -1.976604 65.214025 0.000000 0.000000 0.000002 -9.359920 0.339318 79.953682 -2.020583 3.266781 70.727852 0.000000 -0.000001 -0.000000 -10.487510 4.058299 74.288109 -4.934052 6.014046 77.098690 -0.000000 -0.000001 0.000002 -15.105255 4.652624 65.065741 -3.414751 7.477279 49.106581 -0.000000 -0.000004 0.000001 0.000002 -0.000001 -0.000000 0.000000 0.000000 0.000000 0.000000 0.000000 0.000000 0.000000 0.000000 0.000000 0.000000 0.000000 0.000000 0.000000 0.000000 0.000000 0.000000 0.000000 0.000000 0.000000 0.000000 0.000000 0.000000 0.000000 0.000000 0.000000 0.000000 0.000000 -0.000000 0.000000 -0.000000 -0.000000 0.000000 -0.000000 0.000000 -0.000000 0.000001 
-0.261417 45.914368 -2.300529 -20.415014 -4.596564 8.187309 0.000001 -0.000000 -0.000000 -85.154530 4.812226 14.994044 69.273589 -1.205782 -2.401883 36.683030 -5.326254 -4.633982 -0.000000 -0.000000 -0.000000 -0.000000 -0.000000 0.000000 -0.000001 0.000000 0.000000 -91.031484 7.931995 -4.178825 71.055995 0.149053 2.375284 40.137935 -2.715155 -6.918474 0.000000 -0.000001 0.000000 0.000000 -0.000001 0.000000 -0.000000 -0.000000 -0.000000 6.771902 0.134129 -2.209202 13.554362 0.644324 -4.166040 13.554358 0.644324 -4.166039 4.639435 2.027542 -5.565353 -16.449182 -8.047810 8.451360 0.000000 0.000000 -0.000000 0.000000 0.000000 -0.000000 0.000000 0.000000 -0.000000 1.602530 4.572594 -16.124398 -4.705824 -7.796185 -54.114919 -0.030961 -88.638548 0.034829 65.241332 7.843409 50.049065 -5.937773 1.605201 -21.022387 26.565066 18.105636 -3.603469 0.000003 0.000002 0.000000 10.267356 3.959546 -94.032731 0.410373 0.753660 -50.277384 -0.000000 -0.000000 -0.000000 3.071433 0.911231 -77.823756 -1.948327 -3.792500 -54.113673 0.000001 -0.000001 0.000000 0.523001 4.891466 -75.773668 -2.189812 -4.071883 -56.714168 0.000000 0.000000 0.000001 -2.235532 7.293485 -72.008676 -1.741343 -4.521239 -42.323947 -0.000000 0.000000 -0.000000 0.000001 0.000000 0.000000 1.207550 -1.778663 15.166901 6.614207 14.084426 39.130646 3.200654 89.010260 -3.288911 57.216502 0.627400 -50.628388 1.366272 18.295664 23.880814 19.248778 -35.721193 5.993735 0.000001 0.000001 -0.000002 1.078870 -7.925035 70.513801 1.334168 -1.973126 64.974524 0.000001 0.000000 0.000002 -9.366933 0.398620 79.906287 -2.087388 3.297337 71.894482 0.000001 0.000000 0.000003 -10.540028 4.542015 74.362325 -4.989118 6.026341 77.623679 -0.000001 0.000000 0.000002 -14.471938 3.713052 63.016411 -3.326669 7.401509 48.427455 -0.000003 0.000003 0.000001 0.000003 0.000002 -0.000001 -0.000001 0.000000 -0.000000 -0.000001 0.000000 -0.000000 -0.000001 0.000000 -0.000000 -0.000001 0.000000 -0.000000 -0.000001 0.000000 -0.000000 -0.000001 -0.000000 -0.000000 -0.000001 0.000000 -0.000000 -0.000001 0.000000 -0.000000 -0.000001 -0.000000 -0.000000 0.000000 -0.000000 0.000000 0.000000 -0.000000 0.000000 0.000001 -0.000000 -0.000000 
-0.259839 45.917900 -2.303007 -20.422175 -4.609184 8.169332 0.000001 0.000000 -0.000001 -85.129121 4.730195 14.946476 69.273595 -1.134331 -2.393818 36.680483 -5.360210 -4.666222 0.000000 -0.000000 -0.000000 0.000000 -0.000000 -0.000000 0.000002 -0.000000 -0.000001 -91.006779 7.935532 -4.153390 71.047211 -0.151049 2.354626 40.148856 -2.482009 -7.073833 0.000000 0.000000 0.000000 0.000000 0.000000 0.000000 -0.000000 -0.000001 -0.000000 6.765230 0.139872 -2.205597 13.541209 0.655925 -4.159422 13.541211 0.655925 -4.159423 4.646358 2.027519 -5.598443 -16.412813 -8.085550 8.510528 -0.000000 0.000000 -0.000000 -0.000000 0.000000 -0.000000 -0.000000 0.000000 -0.000000 1.606192 4.574802 -16.157535 -4.620464 -7.805330 -54.098633 -0.033484 -88.690362 0.032350 65.238805 7.861826 50.095223 -5.937797 1.605175 -21.022407 26.565073 18.105689 -3.603484 -0.000002 0.000002 0.000001 10.267347 3.959519 -94.032744 0.410365 0.753651 -50.277367 0.000002 -0.000000 -0.000004 3.071433 0.911207 -77.823770 -1.948320 -3.792517 -54.113683 0.000000 -0.000000 0.000000 0.523013 4.891452 -75.773661 -2.189833 -4.071878 -56.714199 0.000001 -0.000001 -0.000002 -2.235538 7.293454 -72.008670 -1.741340 -4.521258 -42.323957 -0.000000 -0.000000 -0.000004 0.000001 -0.000000 0.000001 1.204360 -1.771273 15.074897 6.690016 14.178962 39.128193 3.079831 88.974716 -3.167957 57.289622 0.353654 -50.725489 0.661956 19.690276 22.188520 16.146062 -31.690346 4.299463 0.000000 0.000001 -0.000003 1.414927 -9.076130 68.438277 1.231512 -1.927310 62.009197 0.000001 0.000000 0.000004 -9.202913 0.035910 78.806941 -2.033226 3.272691 70.949457 -0.000000 -0.000001 0.000003 -10.731480 5.500386 74.471390 -4.959207 6.019707 77.338710 -0.000003 0.000002 0.000001 -13.941634 2.451531 60.811838 -3.109028 7.206211 46.718777 -0.000000 -0.000002 -0.000000 0.000000 0.000001 -0.000002 -0.000000 0.000000 -0.000000 -0.000000 0.000000 -0.000000 -0.000000 0.000000 -0.000000 -0.000000 0.000000 -0.000000 -0.000000 0.000000 0.000000 -0.000000 0.000000 0.000000 -0.000000 0.000000 -0.000000 -0.000000 0.000000 0.000000 -0.000000 0.000000 0.000000 0.000000 -0.000000 0.000000 0.000000 -0.000000 0.000000 0.000001 0.000000 -0.000001 
